<?xml version="1.0" encoding="UTF-8" standalone="no"?>
<!-- Created with Inkscape (http://www.inkscape.org/) -->

<svg
   xmlns:dc="http://purl.org/dc/elements/1.1/"
   xmlns:cc="http://creativecommons.org/ns#"
   xmlns:rdf="http://www.w3.org/1999/02/22-rdf-syntax-ns#"
   xmlns:svg="http://www.w3.org/2000/svg"
   xmlns="http://www.w3.org/2000/svg"
   xmlns:sodipodi="http://sodipodi.sourceforge.net/DTD/sodipodi-0.dtd"
   xmlns:inkscape="http://www.inkscape.org/namespaces/inkscape"
   version="1.1"
   id="svg2"
   width="2000"
   height="2000"
   viewBox="0 0 2000 2000"
   sodipodi:docname="diving.svg"
   inkscape:version="0.92.1 r15371">
  <metadata
     id="metadata8">
    <rdf:RDF>
      <cc:Work
         rdf:about="">
        <dc:format>image/svg+xml</dc:format>
        <dc:type
           rdf:resource="http://purl.org/dc/dcmitype/StillImage" />
        <dc:title></dc:title>
      </cc:Work>
    </rdf:RDF>
  </metadata>
  <defs
     id="defs6" />
  <sodipodi:namedview
     pagecolor="#ffffff"
     bordercolor="#666666"
     borderopacity="1"
     objecttolerance="10"
     gridtolerance="10"
     guidetolerance="10"
     inkscape:pageopacity="0"
     inkscape:pageshadow="2"
     inkscape:window-width="1920"
     inkscape:window-height="1001"
     id="namedview4"
     showgrid="false"
     inkscape:zoom="0.3337544"
     inkscape:cx="1011.3221"
     inkscape:cy="1157.4033"
     inkscape:window-x="-9"
     inkscape:window-y="-9"
     inkscape:window-maximized="1"
     inkscape:current-layer="svg2" />
  <path
     style="fill:#000000"
     d="m 220.32489,1998.9104 c -56.0573,-5.0215 -110.4443,-31.1618 -149.873596,-72.0344 -39.0082,-40.4361 -61.9392004,-91.2959 -66.4468004,-147.376 -0.8246,-10.259 -1.0368,-221.0883 -0.7938,-789.00004 0.3071,-718.0063 0.4542,-775.73536 1.9996,-784.99996 C 14.393194,150.45219 36.543394,106.2885 73.439594,69.462514 92.548194,50.390245 112.31589,36.280159 136.49619,24.452938 c 23.2255,-11.360181 40.8424,-17.1423934 67.5,-22.1548106 9.0615,-1.70381995 45.6686,-1.79996495 792.99998,-2.08273095 563.48063,-0.213202 786.30823,0.01152 793.50003,0.80024095 26.4879,2.90491 52.4598,10.4452826 77.0671,22.3747376 26.1633,12.683803 46.191,27.011951 66.5088,47.581463 35.6094,36.050612 57.8081,80.712042 66.6495,134.091802 1.6257,9.81512 1.7478,56.59926 2.05,785.93632 0.23,554.98904 0.011,779.14904 -0.7715,788.33294 -2.7042,31.7517 -9.497,56.9786 -22.933,85.1671 -22.6805,47.5831 -62.1655,87.4204 -109.5709,110.5482 -22.9579,11.2005 -45.1091,18.2444 -71,22.5774 -10.6126,1.7761 -38.4322,1.8456 -790,1.9736 -428.45001,0.073 -783.12711,-0.237 -788.17131,-0.6888 z m 1571.67131,-41.2289 c 13.9764,-2.3794 28.6051,-6.0739 39,-9.8495 62.1523,-22.5751 109.3565,-74.7624 125.4466,-138.6895 1.3348,-5.3034 3.2356,-14.3675 4.224,-20.1425 1.7167,-10.0311 1.8108,-44.6877 2.1066,-776 0.2108,-521.05062 -0.022,-771.24799 -0.7294,-783.5 -1.6861,-29.20554 -7.4023,-52.18274 -18.907,-76 -10.9136,-22.59327 -22.529,-39.02902 -39.5853,-56.01261 -31.5582,-31.423645 -73.6074,-51.569 -117.7661,-56.420528 -12.957,-1.423529 -1551.07161,-1.476529 -1564.57591,-0.05391 -85.8598,9.044874 -156.276296,73.219039 -173.728696,158.327699 -1.5877,7.74265 -2.8709,18.69757 -3.5326,30.15935 -0.7073,12.25201 -0.9402,262.44938 -0.7294,783.5 0.2952,729.6617 0.3933,765.9916 2.0965,776 0.9827,5.775 2.8578,14.775 4.1668,20 20.8932,83.3946 93.818596,144.3117 179.513896,149.9543 6.325,0.4164 358.225,0.7026 782.00001,0.6359 735.0723,-0.1156 770.9828,-0.2034 781,-1.9087 z M 213.99619,1748.1545 V 1675 l 2.75,-0.016 c 7.4007,-0.043 27.9893,-2.2076 38.25,-4.0223 19.7787,-3.4978 34.9788,-8.1912 57.5574,-17.7721 47.4386,-20.13 92.4955,-26.1823 138.4426,-18.5967 20.4625,3.3783 38.2462,8.7334 62,18.6699 31.2996,13.0929 52.2651,18.3798 82.5,20.804 30.4119,2.4383 63.9744,-2.3175 95.5,-13.5324 3.575,-1.2718 12.5734,-4.8696 19.9965,-7.9951 7.423,-3.1256 17.548,-7.0197 22.5,-8.6536 55.69489,-18.3766 113.08835,-16.2262 168.50352,6.3136 30.67372,12.4763 39.79518,15.5102 58,19.2911 19.18085,3.9836 27.64965,4.837 47.99999,4.837 35.213,0 61.8657,-5.6911 97.5,-20.8192 40.9568,-17.3876 77.56,-24.1882 115.6918,-21.4948 30.1443,2.1291 53.5612,7.8588 83.8082,20.5061 28.4307,11.8878 45.622,16.8003 72,20.5741 11.0725,1.5842 42.8949,1.6096 55,0.044 26.5793,-3.4376 42.0072,-7.9711 80.2328,-23.5768 41.9235,-17.1153 88.3086,-22.222 131.7672,-14.5067 21.274,3.7768 36.1397,8.2642 58.0036,17.5093 31.3392,13.2517 53.6519,19.0444 82.4964,21.4175 6.6,0.543 13.2375,0.9944 14.75,1.0031 l 2.75,0.016 v 73.1545 73.1544 l -12.75,-0.6359 c -29.9593,-1.4943 -57.6472,-8.4626 -88.3852,-22.2441 -49.1791,-22.0499 -103.2938,-26.9095 -154.886,-13.9092 -12.286,3.0959 -30.3279,9.3482 -40.4788,14.0278 -30.2827,13.9604 -60.5952,21.1813 -93.0855,22.1743 -37.3621,1.142 -67.6552,-4.9022 -105.5818,-21.066 -9.6096,-4.0955 -21.9406,-8.8785 -27.4023,-10.629 -56.9438,-18.2503 -115.8773,-14.9966 -170.2952,9.4021 -32.2704,14.4686 -60.9539,21.2914 -93.7207,22.2929 -34.83041,1.0646 -67.37428,-4.9293 -98.91449,-18.218 -40.88997,-17.228 -59.00889,-22.0635 -92.27491,-24.6259 -34.94162,-2.6916 -77.67601,4.8597 -109.20681,19.2969 -38.3001,17.5368 -72.5832,24.7745 -111.4823,23.5358 -32.9752,-1.05 -60.7264,-7.7037 -94.4544,-22.6466 -31.2896,-13.8626 -61.2302,-20.2851 -95.0816,-20.3959 -36.2148,-0.1185 -63.9442,5.8036 -100,21.357 -31.4606,13.5711 -58.4168,20.2645 -87.25,21.6647 l -12.75,0.6191 z m 393.5,-145.869 c -48.3794,-6.6906 -78.4022,-58.1897 -60.1335,-103.1491 2.7185,-6.6903 314.12835,-543.51461 322.03259,-555.1364 6.24569,-9.18317 19.83251,-23.06429 28.66601,-29.28695 3.6108,-2.54358 16.44989,-10.60708 28.53132,-17.91887 12.08143,-7.3118 103.24619,-62.5169 202.58829,-122.67799 L 1309.803,664.73237 1443.0833,437.61619 C 1516.3875,312.70228 1578.842,206.4676 1581.871,201.5391 c 13.1037,-21.32114 32.9306,-36.1313 57.192,-42.72094 7.1276,-1.93591 10.7555,-2.27832 23.4332,-2.21168 17.2882,0.0909 25.024,1.73119 38.9571,8.26044 10.5046,4.92263 15.9156,8.63333 24.7717,16.9877 18.8447,17.77716 28.7712,41.15292 28.7712,67.75291 0,13.48674 -1.8718,23.7462 -6.366,34.89247 -3.0297,7.51392 -326.7004,559.97444 -337.4482,575.97669 -6.9572,10.35853 -21.1437,23.96393 -32.7408,31.39984 -5.4698,3.5071 -115.245,71.82802 -243.945,151.82427 -128.7,79.9963 -234.51294,145.9768 -235.13988,146.6235 -0.62694,0.6466 -49.60015,85.1007 -108.82935,187.6757 -59.22918,102.575 -109.30038,188.9635 -111.26938,191.9745 -14.6486,22.4009 -44.9067,36.0248 -71.7614,32.311 z m 41.5,-500.8114 c -0.825,-0.1616 -4.875,-0.8378 -9,-1.5027 -27.892,-4.4955 -56.3768,-20.5522 -76.6436,-43.2036 -38.7019,-43.2555 -44.4555,-109.48431 -13.7592,-158.3779 10.0935,-16.07699 24.3451,-30.91217 39.6383,-41.26141 7.0256,-4.75434 23.1646,-12.54366 32.2645,-15.57212 11.3887,-3.79014 28.8567,-6.55739 41.3494,-6.55047 21.2532,0.0118 40.2672,4.45734 59.7687,13.97428 25.6612,12.52296 46.38618,32.73314 59.11277,57.64456 10.2407,20.04546 14.09542,34.74354 14.91612,56.87526 0.87319,23.54726 -3.04495,42.411 -13.08557,63 -19.37615,39.7321 -56.08722,66.8998 -100.03162,74.0274 -7.7284,1.2535 -29.866,1.8605 -34.5298,0.9467 z"
     id="path3682"
     inkscape:connector-curvature="0" />
</svg>
